<svg width="19" height="19" viewBox="0 0 19 19" fill="none" xmlns="http://www.w3.org/2000/svg">
<g clip-path="url(#clip0_0_856)">
<path d="M9.50009 18.9628C14.7263 18.9628 18.9631 14.7261 18.9631 9.49984C18.9631 4.27358 14.7263 0.0368652 9.50009 0.0368652C4.27383 0.0368652 0.0371094 4.27358 0.0371094 9.49984C0.0371094 14.7261 4.27383 18.9628 9.50009 18.9628Z" fill="white" stroke="white" stroke-width="5"/>
<path d="M11.4759 4.77712C11.4759 4.77712 10.4926 5.22139 10.379 6.12844C10.2654 7.0355 9.41641 7.9427 8.58458 8.2066C7.76801 8.4659 7.21356 9.21065 6.28193 8.75172C5.10564 8.17224 3.1778 7.23379 2.35205 7.45607C2.53736 7.23795 2.90557 6.90075 3.00435 6.63212C3.15081 6.22442 3.22579 5.96543 3.27229 5.64807C3.3684 4.99321 4.18607 3.70331 5.28535 3.04238C5.67438 2.80914 6.28239 2.06533 6.9473 2.21175C7.65441 2.36746 8.19574 1.89886 8.76485 2.21503C9.33396 2.5312 10.0339 3.40793 10.2944 3.87055C10.6905 4.57415 11.4759 4.77712 11.4759 4.77712Z" fill="#95001A"/>
<path d="M10.2639 5.22974C10.2639 5.22974 9.92077 7.98408 8.02995 7.81866C6.13913 7.65324 6.76466 6.89339 3.23389 6.77447C3.23389 6.77447 4.17767 5.88918 6.06242 5.68793C7.94716 5.48667 10.2639 5.22974 10.2639 5.22974Z" fill="#780016"/>
<path d="M8.90427 3.02963C9.45071 3.66143 9.88795 4.80873 11.4016 4.78414C11.4016 4.78414 10.0805 5.16281 9.1358 4.46323C8.59942 4.06576 7.59338 3.88402 7.59338 3.88402L3.2338 6.77448L2.27344 7.46177C3.12762 6.74101 3.9008 6.05106 4.36625 5.19376C4.82637 4.34653 5.40007 4.2565 6.23253 3.74209C6.92736 3.31272 7.02471 3.01989 7.13801 3.04078C8.42324 3.27775 8.49907 2.56113 8.90427 3.02963Z" fill="#69001F"/>
<path d="M10.9824 4.84118C10.5215 5.02585 10.4049 5.21614 10.2054 5.38719C9.59228 5.91246 9.17659 6.21205 8.69871 6.32163C7.8158 6.52392 6.65203 6.35641 4.86562 6.44216C3.97974 6.48481 3.4637 6.67437 3.11377 6.86365C3.11377 6.86365 4.28045 5.53264 5.33678 4.98307C6.31551 4.47394 6.64245 3.9663 7.29862 3.79936C7.75754 3.6826 7.86427 3.75909 8.38936 3.66709C8.61991 3.62669 8.92974 3.9722 9.06953 4.08236C9.53349 4.448 10.1971 4.83851 10.9824 4.84118Z" fill="#36000A"/>
<path d="M5.46197 8.07812C6.1383 8.6607 7.20944 9.21145 8.34707 8.7115C9.4847 8.21155 10.1242 7.4126 10.3796 6.52466C10.3944 6.85712 10.3537 7.54351 9.76444 8.2465C9.56748 8.48166 9.27693 8.81975 8.71507 9.07254C7.91287 9.43358 7.14635 9.3551 6.9756 9.33436C6.75065 9.30682 6.52585 9.25217 5.84834 8.92519C4.49494 8.27212 4.18558 7.90826 3.23484 7.64392C2.91986 7.55715 2.59833 7.49623 2.27344 7.46177L2.67698 7.17299C2.67698 7.17299 4.78579 7.49539 5.46197 8.07812Z" fill="#69001F"/>
<path d="M11.4016 4.78418C11.4016 4.78418 10.5054 5.30027 9.69678 6.24791C9.69678 6.24791 10.1729 4.99684 10.7835 4.83423C10.7829 4.83423 11.2738 4.81557 11.4016 4.78418Z" fill="#810716"/>
<path d="M8.78168 1.96706C9.17355 2.17334 9.37722 2.2508 9.64579 2.63705C9.8427 2.92024 10.1034 3.46976 10.3196 3.82658C10.6946 4.44531 10.9941 4.48827 11.3971 4.7824C11.3971 4.7824 10.3922 4.69709 9.69344 3.29986C9.51105 2.93517 9.16931 2.45338 8.69792 2.34367C8.47802 2.29248 8.22989 2.32228 7.95657 2.48271C7.42154 2.79675 7.13657 2.43686 6.74976 2.54952C6.35213 2.66532 6.31629 2.98441 5.66632 3.15767C3.54773 3.93693 4.02473 6.39805 2.27344 7.4618C2.27344 7.46195 2.8055 7.00937 3.05114 6.22288C3.45018 4.94524 3.81476 3.93363 4.90663 3.18045C5.343 2.87944 5.68428 2.63872 6.45248 2.13767C6.73354 1.95435 7.31965 2.12892 7.69001 2.0612C8.49493 1.91402 8.4004 1.76635 8.78168 1.96706Z" fill="#B50018"/>
<path d="M7.9428 5.7015C7.9428 5.7015 5.63483 5.09687 3.78369 6.58459C3.78369 6.58459 7.22426 7.38026 6.63427 9.05976C5.43118 12.4848 8.46275 12.6027 11.044 9.9603C12.0689 8.91093 12.0941 6.66999 10.4003 5.13799C10.4003 5.13799 9.02194 4.69463 7.9428 5.7015Z" fill="#F21B4E"/>
<path d="M11.6612 7.86359C11.4054 8.37657 10.0262 10.3317 8.53644 10.4743C6.65909 10.6538 7.98569 8.11741 6.64428 7.46182C5.30288 6.80622 4.51074 6.70552 4.51074 6.70552C4.51074 6.70552 4.80085 6.238 5.51139 5.78603C6.81148 5.53739 7.94274 5.70147 7.94274 5.70147C8.59138 5.09638 9.32939 4.98797 9.82239 5.0096C9.99802 5.03092 10.1423 5.08533 10.3283 5.11702C11.2639 5.96306 11.68 6.95106 11.6612 7.86359Z" fill="#FE677E"/>
<path d="M11.5867 8.99941C11.5719 9.0388 11.5636 9.39703 11.0791 9.92645C7.88818 12.9799 5.46334 12.2666 6.5444 9.09107C7.11826 7.4061 3.72119 6.60516 3.72119 6.60516C5.44645 5.05791 7.94282 5.70128 7.94282 5.70128C7.95378 5.69106 7.96459 5.68128 7.97555 5.67166C7.97585 5.67386 7.9763 5.67603 7.97688 5.67817C8.08064 5.7377 8.18118 5.80266 8.2781 5.87277L8.24745 5.76629L7.98222 5.66618L7.97644 5.67136C7.98378 5.66402 8.23572 5.34716 8.70894 5.14261C9.19024 4.93456 10.0253 4.8621 10.4357 5.16281C9.66358 4.89147 8.69994 5.30219 8.526 6.06425L8.51623 6.0604C9.22706 6.67705 9.66023 7.56322 9.55183 8.38853C9.21344 7.49732 8.90112 6.8826 8.26833 6.14688C7.90921 6.02841 6.68479 5.65907 5.89236 5.82834C4.9551 6.02841 4.77798 6.73584 5.3622 7.12887C5.94641 7.5219 6.69738 7.65563 6.83836 8.31078C6.97935 8.96594 6.5835 9.66211 6.529 10.2856C6.4671 10.9939 6.68702 11.6049 7.41325 11.6184C8.61767 11.6403 10.6447 10.484 11.5867 8.99941Z" fill="#B6044A"/>
<path d="M8.27812 5.87304C8.18121 5.80293 8.08067 5.73797 7.97692 5.67845C7.97633 5.67631 7.97589 5.67413 7.97559 5.67193L7.98136 5.66675L8.24717 5.76671L8.27812 5.87304Z" fill="#D33886"/>
<path d="M10.7428 5.69222C10.7703 5.73235 11.0622 6.16344 10.9174 6.25097C10.7876 6.3296 10.292 6.14093 10.1362 5.81543C10.031 5.59567 10.0752 5.30156 10.2074 5.26024C10.3681 5.21019 10.6384 5.54028 10.7428 5.69222Z" fill="#FFD6EE"/>
<path d="M8.29825 6.50147C8.81657 7.00158 9.02389 7.60357 8.94748 7.63481C8.92986 7.64207 8.80383 7.51131 8.55237 7.24978C8.19577 6.87881 8.1001 6.76507 8.0068 6.61535C7.98903 6.58662 7.76186 6.21847 7.83694 6.18026C7.90062 6.14783 8.15667 6.36478 8.29825 6.50147Z" fill="#FFD6EE"/>
<path d="M7.09228 10.9025C7.04356 10.9511 7.30361 11.2144 7.6919 11.2596C7.86857 11.28 8.08034 11.2565 8.09559 11.216C8.10299 11.1963 8.06597 11.1688 7.75291 11.071C7.33115 10.9397 7.12072 10.8735 7.09228 10.9025Z" fill="#FFD6EE"/>
<path d="M6.96349 10.2617C6.94601 10.3236 7.07871 10.3846 7.12921 10.3629C7.16016 10.3494 7.16313 10.3036 7.1535 10.2754C7.1442 10.2518 7.12714 10.2321 7.10513 10.2196C7.08312 10.2071 7.0575 10.2025 7.0325 10.2065C6.99992 10.2133 6.9703 10.2376 6.96349 10.2617Z" fill="#FFD6EE"/>
<path d="M7.08526 6.10176C7.06927 6.226 6.69386 6.36505 6.38138 6.36046C6.0815 6.35602 5.76903 6.218 5.79998 6.09391C5.8296 5.97692 6.15688 5.88925 6.38968 5.87503C6.72599 5.85386 7.10185 5.97188 7.08526 6.10176Z" fill="#FFD6EE"/>
<path d="M9.4104 2.71936C9.60509 3.19662 9.34415 2.67094 9.07901 2.4336C8.83965 2.21934 8.50681 2.20653 8.56601 2.13843C8.57642 2.11709 8.75908 2.11647 8.90021 2.16762C9.1141 2.24514 9.3137 2.4823 9.4104 2.71936Z" fill="#F79B7F"/>
<path d="M5.54068 4.12515C5.58822 4.15181 6.21857 3.74324 6.51253 3.53295C6.82645 3.3465 6.8315 3.20026 7.00643 3.12385C7.08555 3.08929 7.15143 3.05931 7.40821 3.0692C7.20929 3.00318 7.1221 2.99484 7.08309 2.832C7.0427 2.66337 6.78677 2.14949 6.63143 2.16874C6.47608 2.18799 6.52662 2.72146 6.22856 3.23002C5.91862 3.75886 5.48396 4.09346 5.54068 4.12515Z" fill="#B50018"/>
<path d="M6.51939 3.11971C6.48126 3.29442 6.46271 3.38178 6.48854 3.38906C6.55874 3.40865 6.85721 3.19493 6.84733 2.98763C6.84109 2.8578 6.71456 2.74497 6.64315 2.76317C6.62755 2.76733 6.59271 2.78345 6.51939 3.11971Z" fill="#F79B7F"/>
<path d="M3.94932 4.66947C3.69899 5.57768 4.05926 4.80604 4.31822 4.38C4.58073 3.94812 5.24794 3.40955 4.76507 3.60345C4.43433 3.73626 4.01703 4.42382 3.94932 4.66947Z" fill="#F79B7F"/>
<path d="M7.43896 3.06009C8.06689 3.16394 8.45628 2.86254 8.74584 2.93799C8.9402 2.98864 9.03201 3.27877 9.23835 3.45815C8.82144 3.03298 8.85452 2.41221 8.60417 2.30104C8.30234 2.24925 8.74756 2.56585 8.35397 2.79978C8.16793 2.99169 7.69632 3.05456 7.43896 3.06009Z" fill="#B50018"/>
<path d="M8.27002 2.71447C8.1563 2.81651 7.87444 2.9539 7.88871 2.97185C7.92757 3.0205 8.43359 2.85294 8.53032 2.70433C8.65865 2.52879 8.56464 2.33025 8.50278 2.3185C8.36464 2.29226 8.48884 2.51805 8.27002 2.71447Z" fill="#F79B7F"/>
<path d="M6.59365 2.20544C6.56382 2.27987 6.90083 2.47939 7.14858 2.41755C7.24499 2.3935 7.37854 2.29129 7.3771 2.23761C7.37504 2.16452 7.05977 2.15433 6.91401 2.15494C6.81192 2.15536 6.61698 2.14743 6.59365 2.20544Z" fill="#F79B7F"/>
<path d="M3.70654 15.8857V10.579L4.96842 10.1508L6.26169 11.2957L6.5641 11.5633L6.57194 11.5703L6.87479 11.8383V9.50399L8.51593 8.94702V14.2538L7.57274 14.5739L6.28583 13.251L5.672 12.6203V15.2188L3.70654 15.8857Z" fill="#610300"/>
<path d="M8.83643 14.1263V8.83832L9.73148 8.53459L10.4272 8.29853L10.4336 8.29631L11.3623 7.98132L12.0581 7.74512V9.32894L11.3623 9.565L10.4336 9.88014L10.4272 9.88236V10.2621L10.4336 10.2598L11.3623 9.94485V11.5285L10.4336 11.8437L10.4272 11.8457V13.6052L8.83643 14.1263Z" fill="#610300"/>
<path d="M15.5669 11.8555L13.9697 12.4001V8.6804L12.3726 9.22226V7.63843L13.9697 7.09657L15.5667 6.55471H15.5669L17.1639 6.0127V7.59652L15.5669 8.13839H15.5667V11.8368L15.5669 11.8366V11.8555Z" fill="#610300"/>
<path d="M3.71436 15.8826V10.5957L4.14382 10.9793V16.266L3.71436 15.8826Z" fill="white"/>
<path d="M3.72135 10.6119L4.13601 10.9821V16.2489L3.72135 15.8787V10.6119ZM3.70654 10.5789V15.8855L4.15082 16.2823V10.9756L3.70654 10.5789Z" fill="#231F20"/>
<path d="M3.72119 10.5817L4.96693 10.1589L5.39847 10.5444L4.15273 10.9672L3.72119 10.5817Z" fill="white"/>
<path d="M4.96502 10.1675L5.38456 10.5416L4.15541 10.9589L3.73661 10.5848L4.96576 10.1675H4.96502ZM4.96917 10.1506L3.70654 10.5795L4.15082 10.9762L5.4127 10.5481L4.96843 10.1512L4.96917 10.1506Z" fill="#231F20"/>
<path d="M6.88232 11.835V9.52051L7.31179 9.90406V12.2186L6.88232 11.835Z" fill="white"/>
<path d="M6.88981 9.53683L7.30446 9.90706V12.2017L6.88981 11.8315V9.53683ZM6.875 9.50366V11.8382L7.31927 12.2349V9.90054L6.875 9.50366Z" fill="#231F20"/>
<path d="M7.57784 14.5684L6.11914 13.0689L6.1224 13.0337L7.8647 14.8246L7.57784 14.5684Z" fill="white"/>
<path d="M6.12826 13.0502L7.71282 14.6782L7.58369 14.5629L6.12722 13.066L6.1287 13.0502H6.12826ZM6.11685 13.0168L6.11182 13.0715L7.57332 14.5737L8.01759 14.9704L6.11641 13.0168H6.11685Z" fill="#231F20"/>
<path d="M8.84375 14.123V8.85498L9.27321 9.23853V14.5066L8.84375 14.123Z" fill="white"/>
<path d="M8.85123 8.8714L9.26589 9.24163V14.4898L8.85123 14.1196V8.8714ZM8.83643 8.83838V14.1262L9.2807 14.5231V9.23511L8.83643 8.83838Z" fill="#231F20"/>
<path d="M10.4419 10.265L11.3608 9.95337L11.7923 10.3387L10.8734 10.6505L10.4419 10.265Z" fill="white"/>
<path d="M11.3588 9.96179L11.7777 10.3358L10.8744 10.6421L10.456 10.2688L11.3594 9.96253L11.3588 9.96179ZM11.3628 9.9458L10.4277 10.2628L10.872 10.6597L11.807 10.3425L11.3628 9.9458Z" fill="#231F20"/>
<path d="M14.406 12.7874C14.3564 12.7649 14.1221 12.5418 13.9766 12.3969V8.69678L14.406 9.08033V12.7874Z" fill="white"/>
<path d="M13.984 8.7135L14.3987 9.08372V12.7749C14.3395 12.7368 14.1509 12.56 13.984 12.394V8.7135ZM13.9692 8.68032V12.3999C13.9692 12.3999 14.3676 12.7968 14.4126 12.7968H14.4135V9.07706L13.9692 8.68018V8.68032Z" fill="#231F20"/>
<path d="M12.3799 9.21902V7.65503L12.8093 8.03859V9.60258L12.3799 9.21902Z" fill="white"/>
<path d="M12.3869 7.67145L12.8015 8.04168V9.58596L12.3869 9.21574V7.67145ZM12.3721 7.63843V9.223L12.8163 9.61973V8.03516L12.3721 7.63843Z" fill="#231F20"/>
<path d="M12.3867 7.64151L17.1619 6.02124L17.5936 6.40657L12.8183 8.02699L12.3867 7.64151Z" fill="white"/>
<path d="M17.16 6.02943L17.5789 6.40336L12.8197 8.01756L12.4009 7.64437L17.16 6.03017V6.02943ZM17.1634 6.01344L12.3721 7.63844L12.8163 8.03518L17.6077 6.40943L17.1634 6.0127V6.01344Z" fill="#231F20"/>
<path d="M6.88916 9.50681L8.51416 8.95532L8.94584 9.34065L7.3207 9.89214L6.88916 9.50681Z" fill="white"/>
<path d="M8.51273 8.96356L8.93168 9.33764L7.32268 9.88335L6.90388 9.50928L8.51273 8.96327V8.96356ZM8.51614 8.94653L6.875 9.50335L7.31927 9.90023L8.96041 9.34327L8.51614 8.94653Z" fill="#231F20"/>
<path d="M8.85107 8.84139L12.0567 7.75366L12.4883 8.13899L9.28261 9.22672L8.85107 8.84139Z" fill="white"/>
<path d="M12.0547 7.76185L12.4737 8.13608L9.28411 9.21817L8.86471 8.8441L12.0542 7.76185H12.0547ZM12.0576 7.74512L8.83643 8.83832L9.2807 9.23506L12.5024 8.14185L12.0582 7.74512H12.0576Z" fill="#231F20"/>
<path d="M4.15088 16.2822V10.9755L5.41276 10.5473L6.70603 11.6922L7.00843 11.9598L7.01628 11.9668L7.31913 12.2348V9.90048L8.96026 9.34351V14.6503L8.01708 14.9704L6.73017 13.6476L6.11634 13.0168V15.6153L4.15088 16.2822Z" fill="#050505"/>
<path d="M9.28076 14.5231V9.23505L10.1758 8.93146L10.8715 8.69526L10.8779 8.69304L11.8066 8.37805L12.5025 8.14185V9.72567L11.8066 9.96173L10.8779 10.277L10.8715 10.2791V10.6588L10.8779 10.6567L11.8066 10.3416V11.9253L10.8779 12.2404L10.8715 12.2425V14.0019L9.28076 14.5231Z" fill="#050505"/>
<path d="M16.0107 12.2522L14.4136 12.7969V9.07714L12.8164 9.619V8.03517L14.4136 7.49345L16.0106 6.95144H16.0107L17.6077 6.40942V7.99326L16.0107 8.53512H16.0106V12.2335L16.0107 12.2334V12.2522Z" fill="#050505"/>
</g>
<defs>
<clipPath id="clip0_0_856">
<rect width="19" height="19" rx="9.5" fill="white"/>
</clipPath>
</defs>
</svg>
