<svg width="30" height="30" viewBox="0 0 30 30" fill="none" xmlns="http://www.w3.org/2000/svg">
<rect width="30" height="30" rx="2" fill="white"/>
<path d="M23.3847 11.2773C23.1902 10.5543 22.6203 9.98444 21.8974 9.78978C20.5769 9.42847 15.2947 9.42847 15.2947 9.42847C15.2947 9.42847 10.0127 9.42847 8.69221 9.77608C7.98328 9.97054 7.39939 10.5544 7.20493 11.2773C6.85742 12.5977 6.85742 15.336 6.85742 15.336C6.85742 15.336 6.85742 18.0882 7.20493 19.3948C7.3996 20.1177 7.96938 20.6876 8.69231 20.8822C10.0266 21.2436 15.2949 21.2436 15.2949 21.2436C15.2949 21.2436 20.5769 21.2436 21.8974 20.896C22.6204 20.7015 23.1902 20.1316 23.3849 19.4087C23.7323 18.0882 23.7323 15.35 23.7323 15.35C23.7323 15.35 23.7462 12.5977 23.3847 11.2773ZM13.613 17.8659V12.8062L18.0054 15.336L13.613 17.8659Z" fill="#7481FF"/>
</svg>
