<svg width="18" height="18" viewBox="0 0 18 18" fill="none" xmlns="http://www.w3.org/2000/svg">
<path d="M13.5001 1.87866C12.8271 1.87866 12.1541 2.1338 11.6441 2.64404L3.34357 10.9438C3.18608 11.1013 3.07074 11.2972 3.00959 11.5122L1.89704 15.408C1.8696 15.5044 1.86842 15.6063 1.89361 15.7033C1.9188 15.8004 1.96945 15.8889 2.04032 15.9597C2.11119 16.0306 2.19971 16.0813 2.29672 16.1065C2.39373 16.1317 2.49571 16.1305 2.59211 16.103L6.48859 14.9905C6.48884 14.9902 6.48908 14.99 6.48932 14.9897C6.7029 14.9284 6.89827 14.8144 7.05622 14.6565L15.356 6.35596C16.3764 5.33554 16.3764 3.66446 15.356 2.64404C14.846 2.1338 14.1731 1.87866 13.5001 1.87866ZM13.5001 2.99707C13.8829 2.99707 14.2651 3.14457 14.5599 3.43945C14.5601 3.43945 14.5604 3.43945 14.5606 3.43945C15.1512 4.03003 15.1512 4.96997 14.5606 5.56055L13.8333 6.28784L11.7122 4.16675L12.4395 3.43945C12.7343 3.14457 13.1173 2.99707 13.5001 2.99707ZM10.9168 4.96216L13.0379 7.08325L6.26008 13.8611C6.23809 13.8829 6.21024 13.8996 6.17878 13.9087L3.25641 14.7437L4.09137 11.8206C4.09138 11.8203 4.09138 11.8201 4.09137 11.8198C4.09997 11.7896 4.11572 11.7625 4.13898 11.7393L10.9168 4.96216Z" fill="#53B051"/>
</svg>
