<svg width="19" height="19" viewBox="0 0 19 19" fill="none" xmlns="http://www.w3.org/2000/svg">
<g clip-path="url(#clip0_0_941)">
<path d="M9.50009 18.9628C14.7263 18.9628 18.9631 14.7261 18.9631 9.49984C18.9631 4.27358 14.7263 0.0368652 9.50009 0.0368652C4.27383 0.0368652 0.0371094 4.27358 0.0371094 9.49984C0.0371094 14.7261 4.27383 18.9628 9.50009 18.9628Z" fill="white" stroke="white" stroke-width="5"/>
<path d="M15.5955 6.07896C15.5955 6.07896 14.1719 6.72214 14.0075 8.03529C13.843 9.34845 12.6139 10.6618 11.4097 11.0439C10.2275 11.4193 9.42481 12.4975 8.07607 11.8331C6.37314 10.9941 3.58217 9.63552 2.38672 9.95733C2.65499 9.64154 3.18806 9.15337 3.33106 8.76447C3.54309 8.17425 3.65165 7.79929 3.71897 7.33984C3.85811 6.3918 5.04187 4.52438 6.63331 3.56754C7.19652 3.22987 8.07673 2.15305 9.03933 2.36503C10.063 2.59046 10.8467 1.91205 11.6706 2.36978C12.4946 2.82751 13.5079 4.09676 13.885 4.76651C14.4585 5.78512 15.5955 6.07896 15.5955 6.07896Z" fill="#95001A"/>
<path d="M13.8415 6.73413C13.8415 6.73413 13.3448 10.7216 10.6074 10.4822C7.87003 10.2427 8.77563 9.14263 3.66406 8.97047C3.66406 8.97047 5.03039 7.68883 7.75897 7.39746C10.4876 7.1061 13.8415 6.73413 13.8415 6.73413Z" fill="#780016"/>
<path d="M11.873 3.54901C12.6641 4.46367 13.2971 6.12463 15.4884 6.08904C15.4884 6.08904 13.5758 6.63724 12.2082 5.62445C11.4317 5.04902 9.9752 4.78592 9.9752 4.78592L3.66378 8.97049L2.27344 9.96549C3.51006 8.92203 4.6294 7.92317 5.30324 6.68205C5.96936 5.45551 6.79991 5.32516 8.00508 4.58044C9.011 3.95884 9.15194 3.53491 9.31596 3.56515C11.1766 3.90821 11.2864 2.87075 11.873 3.54901V3.54901Z" fill="#69001F"/>
<path d="M14.8818 6.17177C14.2146 6.43912 14.0457 6.71461 13.7569 6.96223C12.8693 7.72268 12.2675 8.1564 11.5756 8.31505C10.2974 8.60791 8.61263 8.3654 6.02642 8.48953C4.74392 8.55128 3.99683 8.82571 3.49023 9.09974C3.49023 9.09974 5.17926 7.1728 6.70852 6.37719C8.12544 5.64011 8.59876 4.90519 9.54871 4.66351C10.2131 4.49447 10.3676 4.60522 11.1278 4.47201C11.4616 4.41353 11.9101 4.91374 12.1125 5.07322C12.7842 5.60256 13.7449 6.16791 14.8818 6.17177V6.17177Z" fill="#36000A"/>
<path d="M6.88953 10.8579C7.86867 11.7013 9.41937 12.4986 11.0663 11.7748C12.7133 11.051 13.6391 9.89438 14.0089 8.60889C14.0303 9.0902 13.9714 10.0839 13.1183 11.1016C12.8332 11.4421 12.4125 11.9315 11.5991 12.2975C10.4377 12.8202 9.32804 12.7066 9.08085 12.6765C8.75518 12.6367 8.42973 12.5576 7.44889 12.0842C5.48955 11.1387 5.04168 10.612 3.66528 10.2293C3.20928 10.1036 2.74379 10.0154 2.27344 9.96556L2.85766 9.54749C2.85766 9.54749 5.91062 10.0142 6.88953 10.8579V10.8579Z" fill="#69001F"/>
<path d="M15.4886 6.08887C15.4886 6.08887 14.1911 6.83603 13.0205 8.20793C13.0205 8.20793 13.7098 6.39674 14.5937 6.16133C14.5929 6.16133 15.3036 6.13432 15.4886 6.08887V6.08887Z" fill="#810716"/>
<path d="M11.6955 2.01079C12.2628 2.30943 12.5577 2.42156 12.9465 2.98075C13.2316 3.39073 13.609 4.18628 13.9221 4.70286C14.4649 5.5986 14.8985 5.66079 15.482 6.08661C15.482 6.08661 14.0271 5.9631 13.0155 3.94031C12.7515 3.41234 12.2567 2.71484 11.5743 2.55601C11.2559 2.48191 10.8967 2.52505 10.501 2.7573C9.72643 3.21194 9.31388 2.69093 8.75389 2.85402C8.17823 3.02168 8.12635 3.48362 7.18538 3.73446C4.11825 4.86261 4.80881 8.42561 2.27344 9.96562C2.27344 9.96584 3.04371 9.31062 3.39933 8.17201C3.97702 6.32236 4.50484 4.85783 6.08555 3.76744C6.7173 3.33165 7.21137 2.98316 8.32351 2.25779C8.7304 1.9924 9.57892 2.24512 10.1151 2.14708C11.2804 1.93401 11.1435 1.72022 11.6955 2.01079Z" fill="#B50018"/>
<path d="M10.4817 7.41725C10.4817 7.41725 7.14037 6.54191 4.46045 8.69571C4.46045 8.69571 9.44142 9.84761 8.58728 12.279C6.84554 17.2375 11.2344 17.4082 14.9713 13.5828C16.4551 12.0636 16.4915 8.81934 14.0395 6.60144C14.0395 6.60144 12.044 5.95959 10.4817 7.41725V7.41725Z" fill="#F21B4E"/>
<path d="M15.8645 10.5473C15.4942 11.2899 13.4976 14.1203 11.3408 14.3268C8.6229 14.5866 10.5434 10.9147 8.60146 9.96563C6.65949 9.01652 5.5127 8.87073 5.5127 8.87073C5.5127 8.87073 5.93269 8.19389 6.96135 7.53957C8.84351 7.1796 10.4813 7.41715 10.4813 7.41715C11.4203 6.54114 12.4887 6.38421 13.2025 6.41551C13.4567 6.44638 13.6656 6.52515 13.9349 6.57103C15.2894 7.79585 15.8917 9.22619 15.8645 10.5473Z" fill="#FE677E"/>
<path d="M15.7562 12.192C15.7348 12.2491 15.7228 12.7677 15.0213 13.5341C10.4018 17.9547 6.89128 16.922 8.45635 12.3248C9.28713 9.88539 4.36914 8.72585 4.36914 8.72585C6.86682 6.48587 10.4809 7.41729 10.4809 7.41729C10.4967 7.40249 10.5124 7.38834 10.5283 7.37441C10.5287 7.37759 10.5293 7.38074 10.5302 7.38384C10.6804 7.47002 10.8259 7.56405 10.9663 7.66555L10.9219 7.51141L10.5379 7.36648L10.5295 7.37398C10.5402 7.36335 10.9049 6.90463 11.59 6.60849C12.2868 6.3073 13.4957 6.20239 14.0899 6.63774C12.972 6.24491 11.577 6.83952 11.3251 7.94277L11.311 7.93719C12.3401 8.82993 12.9672 10.1129 12.8103 11.3077C12.3204 10.0175 11.8682 9.1275 10.9521 8.0624C10.4322 7.89088 8.6596 7.35619 7.51238 7.60124C6.15549 7.89088 5.89907 8.91504 6.74485 9.48404C7.59063 10.053 8.67782 10.2466 8.88192 11.1951C9.08603 12.1436 8.51295 13.1515 8.43406 14.0541C8.34444 15.0795 8.66281 15.9641 9.7142 15.9836C11.4579 16.0153 14.3925 14.3413 15.7562 12.192V12.192Z" fill="#B6044A"/>
<path d="M10.9663 7.66559C10.826 7.56409 10.6805 7.47006 10.5303 7.38388C10.5294 7.38078 10.5288 7.37763 10.5283 7.37445V7.37445L10.5367 7.36694L10.9215 7.51166L10.9663 7.66559Z" fill="#D33886"/>
<path d="M14.5347 7.40379C14.5746 7.46189 14.9971 8.08598 14.7874 8.21269C14.5996 8.32653 13.8821 8.0534 13.6565 7.58216C13.5043 7.264 13.5682 6.83822 13.7597 6.7784C13.9923 6.70594 14.3835 7.18382 14.5347 7.40379V7.40379Z" fill="#FFD6EE"/>
<path d="M10.9955 8.57545C11.7458 9.29946 12.046 10.171 11.9354 10.2162C11.9098 10.2267 11.7274 10.0374 11.3634 9.65879C10.8471 9.12173 10.7086 8.95708 10.5735 8.74032C10.5478 8.69873 10.2189 8.16575 10.3276 8.11043C10.4198 8.06348 10.7905 8.37757 10.9955 8.57545V8.57545Z" fill="#FFD6EE"/>
<path d="M9.24969 14.9468C9.17916 15.0171 9.55563 15.3983 10.1178 15.4637C10.3735 15.4933 10.6801 15.4592 10.7022 15.4007C10.7129 15.3722 10.6593 15.3323 10.2061 15.1908C9.5955 15.0006 9.29085 14.9048 9.24969 14.9468Z" fill="#FFD6EE"/>
<path d="M9.06283 14.0188C9.03753 14.1084 9.22963 14.1967 9.30275 14.1652C9.34756 14.1457 9.35184 14.0795 9.33791 14.0385C9.32445 14.0044 9.29974 13.9759 9.26788 13.9578C9.23602 13.9397 9.19893 13.933 9.16274 13.9388C9.11557 13.9487 9.07269 13.9838 9.06283 14.0188V14.0188Z" fill="#FFD6EE"/>
<path d="M9.23929 7.99636C9.21614 8.17623 8.67265 8.37755 8.22028 8.3709C7.78613 8.36447 7.33376 8.16466 7.37857 7.985C7.42144 7.81563 7.89526 7.68872 8.23228 7.66813C8.71917 7.63748 9.26331 7.80834 9.23929 7.99636V7.99636Z" fill="#FFD6EE"/>
<path d="M12.6055 3.09983C12.8874 3.79076 12.5096 3.02974 12.1258 2.68613C11.7792 2.37594 11.2974 2.3574 11.3831 2.25881C11.3981 2.22792 11.6626 2.22702 11.8669 2.30107C12.1765 2.41329 12.4655 2.75664 12.6055 3.09983V3.09983Z" fill="#F79B7F"/>
<path d="M7.0029 5.1351C7.07172 5.17369 7.98428 4.5822 8.40986 4.27776C8.86432 4.00783 8.87164 3.79611 9.12488 3.6855C9.23942 3.63547 9.3348 3.59206 9.70655 3.60638C9.41857 3.5108 9.29235 3.49872 9.23587 3.26298C9.17739 3.01885 8.80689 2.27489 8.58199 2.30276C8.35709 2.33064 8.43025 3.10294 7.99875 3.83919C7.55004 4.60481 6.92078 5.08922 7.0029 5.1351V5.1351Z" fill="#B50018"/>
<path d="M8.41991 3.67913C8.36471 3.93207 8.33786 4.05854 8.37525 4.06908C8.47687 4.09744 8.90898 3.78803 8.89467 3.48792C8.88564 3.29997 8.70246 3.13661 8.59908 3.16296C8.57649 3.16898 8.52606 3.19232 8.41991 3.67913V3.67913Z" fill="#F79B7F"/>
<path d="M4.69958 5.92303C4.33718 7.23786 4.85874 6.12075 5.23365 5.50396C5.61369 4.87872 6.57962 4.09902 5.88056 4.37973C5.40174 4.572 4.79761 5.5674 4.69958 5.92303V5.92303Z" fill="#F79B7F"/>
<path d="M9.75195 3.59288C10.661 3.74322 11.2247 3.30688 11.6439 3.41612C11.9253 3.48944 12.0582 3.90947 12.357 4.16916C11.7534 3.55363 11.8013 2.65493 11.4388 2.49399C11.0019 2.41901 11.6464 2.87737 11.0766 3.21602C10.8073 3.49385 10.1245 3.58487 9.75195 3.59288V3.59288Z" fill="#B50018"/>
<path d="M10.9551 3.09313C10.7905 3.24085 10.3825 3.43976 10.4031 3.46574C10.4594 3.53617 11.1919 3.2936 11.332 3.07845C11.5178 2.82432 11.3817 2.53688 11.2921 2.51987C11.0921 2.48188 11.2719 2.80877 10.9551 3.09313V3.09313Z" fill="#F79B7F"/>
<path d="M8.52807 2.35557C8.48488 2.46332 8.97278 2.75216 9.33145 2.66264C9.47103 2.62782 9.66438 2.47984 9.66229 2.40213C9.6593 2.29632 9.20288 2.28157 8.99186 2.28245C8.84406 2.28307 8.56185 2.27158 8.52807 2.35557Z" fill="#F79B7F"/>
</g>
<defs>
<clipPath id="clip0_0_941">
<rect width="19" height="19" rx="9.5" fill="white"/>
</clipPath>
</defs>
</svg>
