<svg width="24" height="24" viewBox="0 0 24 24" fill="none" xmlns="http://www.w3.org/2000/svg">
<path d="M12 0.800049C11.8747 0.800224 11.7511 0.829871 11.6392 0.886596C11.5274 0.943322 11.4305 1.02554 11.3563 1.12661C11.3482 1.13684 11.3404 1.14726 11.3329 1.15786C9.44396 3.58851 4.80005 11.2188 4.80005 15.2C4.80005 19.1768 8.02325 22.4 12 22.4C15.9768 22.4 19.2 19.1768 19.2 15.2C19.2 11.2233 14.5665 3.6084 12.6735 1.1688C12.6733 1.16852 12.6737 1.16751 12.6735 1.16724C12.664 1.15339 12.6541 1.13984 12.6438 1.12661C12.5696 1.02554 12.4727 0.943322 12.3608 0.886596C12.249 0.829871 12.1254 0.800224 12 0.800049ZM7.20005 14.4C7.64245 14.4 8.00005 14.7576 8.00005 15.2C8.00005 16.888 9.07204 18.4024 10.6672 18.9672C11.0832 19.1144 11.3012 19.5707 11.1532 19.9875C11.0372 20.3155 10.7296 20.5204 10.4 20.5204C10.312 20.5204 10.2209 20.5062 10.1329 20.475C7.90006 19.6854 6.40005 17.5648 6.40005 15.2C6.40005 14.7576 6.75765 14.4 7.20005 14.4Z" fill="white"/>
</svg>
