<svg width="20" height="20" viewBox="0 0 20 20" fill="none" xmlns="http://www.w3.org/2000/svg">
<path d="M6.45825 2.50005C6.41149 2.49944 6.36481 2.50409 6.31909 2.51389C5.82361 2.55163 5.38227 2.78201 5.06746 3.134C5.0317 3.16447 4.99949 3.19886 4.97144 3.23654L2.46086 6.53814C2.46004 6.53949 2.45922 6.54085 2.45841 6.54221C2.21534 6.8665 2.08325 7.261 2.08325 7.66688V15.2084C2.08325 16.2365 2.93013 17.0834 3.95825 17.0834H6.24992V18.5417C6.24994 18.7075 6.31579 18.8664 6.43299 18.9836C6.5502 19.1008 6.70916 19.1667 6.87492 19.1667H7.77987C8.16658 19.1667 8.53764 19.0128 8.81095 18.7395L10.467 17.0834H12.5723C13.1005 17.0834 13.6039 16.8598 13.9591 16.4698L17.1044 13.0103H17.1036C17.6266 12.4353 17.9166 11.6855 17.9166 10.9083V4.37505C17.9166 3.34693 17.0697 2.50005 16.0416 2.50005H6.45825ZM6.45825 3.75005H16.0416C16.3943 3.75005 16.6666 4.02234 16.6666 4.37505V10.9083C16.6666 11.3752 16.4928 11.8247 16.1791 12.1696L15.1212 13.3334H10.2083C10.0425 13.3334 9.88355 13.3993 9.76636 13.5165L9.16658 14.1163V13.9584C9.16657 13.7926 9.10071 13.6337 8.98351 13.5165C8.8663 13.3993 8.70734 13.3334 8.54158 13.3334H5.83325V4.37505C5.83325 4.25334 5.86744 4.14258 5.9244 4.0479L5.96672 3.99257C5.97614 3.98016 5.9851 3.9674 5.99357 3.95432C6.10682 3.82875 6.27034 3.75005 6.45825 3.75005ZM4.58325 5.81223V13.5417C4.58325 14.1099 5.05675 14.5834 5.62492 14.5834H7.91658V15.6251C7.91663 15.7486 7.95332 15.8694 8.022 15.9722C8.09068 16.0749 8.18828 16.155 8.30246 16.2023C8.41664 16.2496 8.54228 16.262 8.66349 16.2379C8.78471 16.2138 8.89606 16.1543 8.98348 16.0669L10.467 14.5834H13.9843L13.0346 15.6283C12.9155 15.7591 12.7484 15.8334 12.5723 15.8334H10.2083C10.0425 15.8334 9.88355 15.8993 9.76636 16.0165L7.92716 17.8557C7.88798 17.8949 7.83482 17.9167 7.77987 17.9167H7.49992V16.4584C7.4999 16.2926 7.43405 16.1337 7.31684 16.0165C7.19964 15.8993 7.04067 15.8334 6.87492 15.8334H3.95825C3.60554 15.8334 3.33325 15.5611 3.33325 15.2084V7.66688C3.33325 7.53193 3.37748 7.39991 3.45858 7.29172L4.58325 5.81223ZM9.78182 6.2411C9.6162 6.24369 9.45838 6.31191 9.34303 6.43077C9.22767 6.54964 9.16421 6.70943 9.16658 6.87505V10.2084C9.16541 10.2912 9.18072 10.3734 9.2116 10.4503C9.24248 10.5271 9.28833 10.5971 9.34649 10.6561C9.40464 10.7151 9.47393 10.7619 9.55034 10.7939C9.62675 10.8258 9.70876 10.8423 9.79158 10.8423C9.87441 10.8423 9.95642 10.8258 10.0328 10.7939C10.1092 10.7619 10.1785 10.7151 10.2367 10.6561C10.2948 10.5971 10.3407 10.5271 10.3716 10.4503C10.4025 10.3734 10.4178 10.2912 10.4166 10.2084V6.87505C10.4178 6.7914 10.4022 6.70836 10.3707 6.63085C10.3392 6.55334 10.2925 6.48294 10.2333 6.42382C10.1741 6.3647 10.1036 6.31806 10.0261 6.28668C9.94853 6.25529 9.86547 6.23979 9.78182 6.2411ZM13.1152 6.2411C12.9495 6.24369 12.7917 6.31191 12.6764 6.43077C12.561 6.54964 12.4975 6.70943 12.4999 6.87505V10.2084C12.4987 10.2912 12.514 10.3734 12.5449 10.4503C12.5758 10.5271 12.6217 10.5971 12.6798 10.6561C12.738 10.7151 12.8073 10.7619 12.8837 10.7939C12.9601 10.8258 13.0421 10.8423 13.1249 10.8423C13.2077 10.8423 13.2897 10.8258 13.3662 10.7939C13.4426 10.7619 13.5119 10.7151 13.57 10.6561C13.6282 10.5971 13.674 10.5271 13.7049 10.4503C13.7358 10.3734 13.7511 10.2912 13.7499 10.2084V6.87505C13.7511 6.7914 13.7355 6.70836 13.704 6.63085C13.6725 6.55334 13.6258 6.48294 13.5666 6.42382C13.5074 6.3647 13.437 6.31806 13.3594 6.28668C13.2819 6.25529 13.1988 6.23979 13.1152 6.2411Z" fill="white"/>
</svg>
