<svg width="19" height="19" fill="none" xmlns="http://www.w3.org/2000/svg"><g clip-path="url(#a)"><path d="M9.5 18.963A9.463 9.463 0 1 0 9.5.037a9.463 9.463 0 0 0 0 18.926Z" fill="#fff" stroke="#fff" stroke-width="5"/><path d="M11.476 4.777s-.983.444-1.097 1.351c-.114.907-.963 1.815-1.794 2.079-.817.259-1.371 1.004-2.303.545-1.176-.58-3.104-1.518-3.93-1.296.185-.218.554-.555.652-.824.147-.408.222-.667.268-.984.096-.655.914-1.945 2.013-2.606.39-.233.997-.977 1.662-.83.707.155 1.249-.313 1.818.003s1.269 1.193 1.53 1.656c.396.703 1.18.906 1.18.906Z" fill="#95001A"/><path d="M10.264 5.23S9.92 7.984 8.03 7.819c-1.89-.166-1.265-.926-4.796-1.045 0 0 .944-.885 2.828-1.086 1.885-.201 4.202-.458 4.202-.458Z" fill="#780016"/><path d="M8.904 3.03c.547.631.984 1.779 2.498 1.754 0 0-1.321.379-2.266-.32-.537-.398-1.543-.58-1.543-.58l-4.36 2.89-.96.688c.855-.721 1.628-1.41 2.093-2.268.46-.847 1.034-.938 1.867-1.452.694-.43.792-.722.905-.701 1.285.237 1.361-.48 1.766-.011Z" fill="#69001F"/><path d="M10.982 4.841c-.46.185-.577.375-.777.546-.613.525-1.028.825-1.506.935-.883.202-2.047.034-3.833.12-.886.043-1.402.232-1.752.422 0 0 1.166-1.331 2.223-1.88.979-.51 1.305-1.018 1.962-1.185.459-.116.565-.04 1.09-.132.23-.04.54.305.68.415.464.366 1.128.757 1.913.76Z" fill="#36000A"/><path d="M5.462 8.078c.676.583 1.747 1.133 2.885.633 1.138-.5 1.777-1.298 2.033-2.186.014.332-.026 1.019-.616 1.721-.197.236-.487.574-1.049.827a3.394 3.394 0 0 1-1.74.261c-.224-.027-.45-.082-1.127-.409-1.353-.653-1.662-1.017-2.613-1.281a6.005 6.005 0 0 0-.962-.182l.404-.289s2.109.322 2.785.905Z" fill="#69001F"/><path d="M11.402 4.784s-.897.516-1.705 1.464c0 0 .476-1.251 1.087-1.414-.001 0 .49-.018.618-.05Z" fill="#810716"/><path d="M8.782 1.967c.392.206.595.284.864.67.197.283.457.833.674 1.19.375.618.674.661 1.077.955 0 0-1.005-.085-1.704-1.482-.182-.365-.524-.847-.995-.956-.22-.052-.468-.022-.741.139-.535.314-.82-.046-1.207.067-.398.115-.434.434-1.084.608-2.118.779-1.641 3.24-3.393 4.304 0 0 .532-.453.778-1.24.4-1.277.764-2.288 1.856-3.042.436-.3.777-.541 1.545-1.042.282-.184.868-.01 1.238-.077.805-.147.71-.295 1.092-.094Z" fill="#B50018"/><path d="M7.943 5.702s-2.308-.605-4.16.883c0 0 3.441.795 2.851 2.475-1.203 3.425 1.829 3.543 4.41.9 1.025-1.05 1.05-3.29-.644-4.822 0 0-1.378-.443-2.457.564Z" fill="#F21B4E"/><path d="M11.661 7.864c-.256.513-1.635 2.468-3.125 2.61-1.877.18-.55-2.357-1.892-3.012-1.341-.656-2.133-.756-2.133-.756s.29-.468 1-.92c1.3-.249 2.432-.085 2.432-.085a2.56 2.56 0 0 1 1.88-.691c.175.02.32.075.505.107.936.846 1.352 1.834 1.333 2.747Z" fill="#FE677E"/><path d="M11.587 9c-.015.039-.023.397-.508.926-3.19 3.054-5.616 2.34-4.535-.835.574-1.685-2.823-2.486-2.823-2.486 1.725-1.547 4.222-.904 4.222-.904l.033-.03v.007c.105.06.205.125.302.195l-.03-.107-.266-.1-.006.005c.008-.007.26-.324.733-.528.481-.208 1.316-.28 1.727.02-.772-.272-1.736.14-1.91.901l-.01-.004c.711.617 1.144 1.503 1.036 2.329-.339-.892-.65-1.506-1.284-2.242-.359-.119-1.583-.488-2.376-.319-.937.2-1.114.908-.53 1.3.584.394 1.335.528 1.476 1.183.141.655-.255 1.351-.309 1.975-.062.708.158 1.319.884 1.332 1.205.022 3.232-1.134 4.174-2.619Z" fill="#B6044A"/><path d="M8.278 5.873a3.402 3.402 0 0 0-.301-.195.05.05 0 0 1-.001-.006l.005-.005.266.1.031.106Z" fill="#D33886"/><path d="M10.743 5.692c.027.04.32.471.174.559-.13.079-.625-.11-.78-.436-.106-.22-.062-.513.07-.555.161-.05.431.28.536.432Zm-2.445.809c.519.5.726 1.103.65 1.134-.018.007-.144-.124-.396-.385-.356-.371-.452-.485-.545-.635-.018-.028-.245-.397-.17-.435.064-.032.32.185.461.321Zm-1.206 4.401c-.048.05.212.312.6.358.177.02.388-.003.404-.044.007-.02-.03-.047-.343-.145-.422-.131-.632-.197-.66-.168Zm-.129-.64c-.017.062.116.123.166.1.031-.013.034-.058.025-.087a.11.11 0 0 0-.122-.069c-.032.007-.062.032-.069.056Zm.122-4.16c-.016.124-.391.263-.704.258-.3-.004-.612-.142-.581-.266.03-.117.357-.205.59-.219.336-.021.712.097.695.227Z" fill="#FFD6EE"/><path d="M9.41 2.72c.195.477-.066-.05-.331-.286-.24-.215-.572-.227-.513-.296.01-.02.193-.022.334.03.214.077.414.314.51.551Z" fill="#F79B7F"/><path d="M5.54 4.125c.048.027.679-.382.973-.592.313-.187.319-.333.493-.41.08-.034.145-.064.402-.054-.199-.066-.286-.074-.325-.237-.04-.169-.296-.683-.452-.663-.155.019-.104.552-.402 1.061-.31.529-.745.863-.688.895Z" fill="#B50018"/><path d="M6.52 3.12c-.039.174-.057.262-.031.27.07.019.368-.195.358-.402-.006-.13-.132-.243-.204-.225-.015.004-.05.02-.124.357ZM3.95 4.67c-.251.908.11.136.368-.29.263-.432.93-.97.447-.777-.33.133-.748.82-.816 1.066Z" fill="#F79B7F"/><path d="M7.439 3.06c.628.104 1.017-.197 1.307-.122.194.05.286.34.492.52-.417-.425-.383-1.046-.634-1.157-.302-.052.144.265-.25.499-.186.192-.658.255-.915.26Z" fill="#B50018"/><path d="M8.27 2.714c-.114.103-.396.24-.381.258.039.049.545-.12.641-.268.129-.175.035-.374-.027-.386-.138-.026-.014.2-.233.396Zm-1.676-.509c-.03.075.307.274.555.213.096-.025.23-.127.228-.18-.002-.073-.317-.084-.463-.083-.102 0-.297-.008-.32.05Z" fill="#F79B7F"/><path d="M3.707 15.886v-5.307l1.261-.428 1.294 1.145.302.267.008.007.303.268V9.504l1.64-.557v5.307l-.942.32-1.287-1.323-.614-.63v2.598l-1.965.667Zm5.129-1.76V8.838l.895-.303.696-.236.007-.003.928-.315.696-.236V9.33l-.696.236-.928.315-.007.002v.38l.007-.002.928-.315v1.583l-.928.316-.007.002v1.76l-1.59.52Zm6.731-2.271-1.597.545V8.68l-1.597.542V7.638l1.597-.541 1.597-.542 1.597-.542v1.584l-1.597.541v3.717Z" fill="#610300"/><path d="M3.714 15.883v-5.287l.43.383v5.287l-.43-.383Z" fill="#fff"/><path d="m3.721 10.612.415.37v5.267l-.415-.37v-5.267Zm-.014-.033v5.306l.444.397v-5.306l-.444-.397Z" fill="#231F20"/><path d="m3.721 10.582 1.246-.423.431.385-1.245.423-.432-.385Z" fill="#fff"/><path d="m4.965 10.168.42.374-1.23.417-.418-.374 1.229-.418h-.001Zm.004-.017-1.262.428.444.397 1.262-.428-.445-.397h.001Z" fill="#231F20"/><path d="M6.882 11.835V9.521l.43.383v2.315l-.43-.384Z" fill="#fff"/><path d="m6.89 9.537.414.37v2.295l-.414-.37V9.537Zm-.015-.033v2.334l.444.397V9.9l-.444-.397Z" fill="#231F20"/><path d="m7.578 14.568-1.459-1.5.003-.034 1.743 1.79-.287-.256Z" fill="#fff"/><path d="m6.128 13.05 1.585 1.628-.13-.115-1.456-1.497.002-.016Zm-.011-.033-.005.055 1.461 1.502.445.396-1.902-1.953Z" fill="#231F20"/><path d="M8.844 14.123V8.855l.43.384v5.268l-.43-.384Z" fill="#fff"/><path d="m8.851 8.871.415.37v5.249l-.415-.37V8.87Zm-.015-.033v5.288l.445.397V9.235l-.445-.397Z" fill="#231F20"/><path d="m10.442 10.265.919-.312.431.386-.919.311-.431-.385Z" fill="#fff"/><path d="m11.359 9.962.419.374-.904.306-.418-.373.903-.306v-.001Zm.004-.016-.935.317.444.397.935-.318-.444-.396Z" fill="#231F20"/><path d="M14.406 12.787c-.05-.022-.284-.245-.43-.39v-3.7l.43.383v3.707Z" fill="#fff"/><path d="m13.984 8.713.415.37v3.692a4.715 4.715 0 0 1-.415-.381v-3.68Zm-.015-.033v3.72s.399.397.444.397v-3.72l-.444-.397Z" fill="#231F20"/><path d="M12.38 9.219V7.655l.43.384v1.564l-.43-.384Z" fill="#fff"/><path d="m12.387 7.671.415.37v1.545l-.415-.37V7.67Zm-.015-.033v1.585l.444.397V8.035l-.444-.397Z" fill="#231F20"/><path d="m12.387 7.642 4.775-1.62.432.385-4.776 1.62-.431-.385Z" fill="#fff"/><path d="m17.16 6.03.419.373-4.76 1.615-.418-.374L17.16 6.03Zm.003-.017-4.79 1.625.443.397 4.792-1.626-.445-.396Z" fill="#231F20"/><path d="m6.89 9.507 1.624-.552.432.386-1.625.551-.432-.385Z" fill="#fff"/><path d="m8.513 8.964.419.374-1.61.545-.418-.374 1.609-.546Zm.003-.017-1.641.556.444.397 1.641-.557-.444-.396Z" fill="#231F20"/><path d="m8.851 8.841 3.206-1.087.431.385-3.205 1.088-.432-.386Z" fill="#fff"/><path d="m12.055 7.762.419.374-3.19 1.082-.42-.374 3.19-1.082Zm.003-.017L8.836 8.838l.445.397 3.221-1.093-.444-.397Z" fill="#231F20"/><path d="M4.15 16.282v-5.306l1.263-.429 1.293 1.145.302.268.008.007.303.268V9.9l1.641-.556v5.306l-.943.32-1.287-1.322-.614-.631v2.598l-1.965.667Zm5.13-1.759V9.235l.896-.304.695-.236.007-.002.929-.315.695-.236v1.584l-.695.236-.93.315-.006.002v.38l.007-.002.929-.315v1.583l-.93.315-.006.002v1.76l-1.59.521Zm6.73-2.271-1.596.545v-3.72l-1.598.542V8.035l1.598-.542 1.597-.542 1.597-.542v1.584l-1.597.542v3.718Z" fill="#050505"/></g><defs><clipPath id="a"><rect width="19" height="19" rx="9.5" fill="#fff"/></clipPath></defs></svg>