<svg width="20" height="20" fill="none" xmlns="http://www.w3.org/2000/svg"><path d="M17.28 2.078a.625.625 0 0 0-.068.005H11.46a.625.625 0 1 0 0 1.25h4.324L9.35 9.766a.625.625 0 1 0 .884.884l6.433-6.433v4.325a.628.628 0 0 0 .625.634.625.625 0 0 0 .625-.634V2.787a.626.626 0 0 0-.637-.71ZM5.208 3.333a3.134 3.134 0 0 0-3.125 3.125v8.334a3.134 3.134 0 0 0 3.125 3.125h8.334a3.134 3.134 0 0 0 3.125-3.125v-4.167a.624.624 0 1 0-1.25 0v4.167a1.865 1.865 0 0 1-1.875 1.875H5.208a1.865 1.865 0 0 1-1.875-1.875V6.458c0-1.043.832-1.875 1.875-1.875h4.167a.625.625 0 1 0 0-1.25H5.208Z" fill="#fff"/></svg>