<svg width="28" height="27" fill="none" xmlns="http://www.w3.org/2000/svg"><path fill-rule="evenodd" clip-rule="evenodd" d="M5.408.967C3.55 2.259 2.884 4.777 1.551 9.81l-.062.232C.157 15.078-.51 17.595.461 19.654c.148.314.322.615.52.9 1.297 1.87 3.81 2.552 8.837 3.915 5.026 1.363 7.54 2.045 9.588 1.082.312-.147.61-.32.893-.516 1.067-.742 1.742-1.888 2.375-3.683h-1.46a.195.195 0 0 1-.193-.195c0-.18-.236-.276-.378-.166-.494.384-1.122.576-1.883.576-1.002 0-1.857-.389-2.565-1.167-.708-.788-1.062-1.75-1.062-2.886 0-1.137.354-2.094 1.062-2.872.708-.788 1.563-1.182 2.565-1.182.761 0 1.39.192 1.883.576.142.11.378.017.378-.163v-3.075c0-.107.087-.194.194-.194h1.889c.107 0 .193.087.193.194v8.563c.266-.927.544-1.978.86-3.17l.061-.232c1.333-5.035 2-7.552 1.028-9.612a6.257 6.257 0 0 0-.519-.899c-1.298-1.87-3.81-2.552-8.837-3.915C10.863.169 8.35-.512 6.302.45c-.312.147-.61.32-.894.516Zm7.3 12.032c.375 0 .693-.133.956-.399a1.35 1.35 0 0 0 .41-.983 1.3 1.3 0 0 0-.41-.967 1.271 1.271 0 0 0-.956-.415 1.32 1.32 0 0 0-.97.415 1.326 1.326 0 0 0-.395.967c0 .38.131.707.394.983.273.266.597.4.971.4Zm-1.138 8.16c0 .107.087.193.194.193h1.889a.194.194 0 0 0 .194-.194v-7.29a.194.194 0 0 0-.194-.193h-1.889a.194.194 0 0 0-.194.194v7.29Zm7.645-1.772c-.536 0-.971-.17-1.305-.507-.334-.338-.5-.793-.5-1.366 0-.574.166-1.03.5-1.367.334-.338.769-.507 1.305-.507.536 0 .971.17 1.305.507.334.338.501.793.501 1.367 0 .573-.167 1.028-.5 1.366-.335.338-.77.507-1.306.507Z" fill="#fff"/><path d="M26.571 21.353a1.43 1.43 0 0 0 1.427-1.44 1.43 1.43 0 0 0-1.427-1.44c-.79 0-1.419.643-1.419 1.44 0 .797.63 1.44 1.42 1.44Z" fill="#fff"/></svg>