<svg width="30" height="30" fill="none" xmlns="http://www.w3.org/2000/svg"><rect width="30" height="30" rx="2" fill="#fff"/><path d="M23.385 11.277a2.114 2.114 0 0 0-1.488-1.487c-1.32-.362-6.602-.362-6.602-.362s-5.282 0-6.603.348a2.157 2.157 0 0 0-1.487 1.501c-.348 1.32-.348 4.059-.348 4.059s0 2.752.348 4.059a2.114 2.114 0 0 0 1.487 1.487c1.335.362 6.603.362 6.603.362s5.282 0 6.602-.348a2.114 2.114 0 0 0 1.488-1.487c.347-1.32.347-4.059.347-4.059s.014-2.752-.347-4.073Zm-9.772 6.589v-5.06l4.392 2.53-4.392 2.53Z" fill="#7481FF"/></svg>