<svg width="112" height="33" fill="none" xmlns="http://www.w3.org/2000/svg"><path d="m61.664 28-6.58-19.6h4.2l4.788 15.064L68.832 8.4h4.228L66.452 28h-4.788Zm25.324 0-1.176-3.528H78L76.824 28h-4.172l6.86-19.6H84.3L91.188 28h-4.2Zm-7.756-7.14h5.376l-2.688-8.008-2.688 8.008Zm23.004 7.532c-2.95 0-5.385-.98-7.308-2.94s-2.884-4.377-2.884-7.252c0-2.893.961-5.31 2.884-7.252 1.923-1.96 4.359-2.94 7.308-2.94 1.773 0 3.407.42 4.9 1.26 1.512.821 2.688 1.941 3.528 3.36l-3.332 1.932a5.08 5.08 0 0 0-2.072-2.044c-.896-.504-1.904-.756-3.024-.756-1.904 0-3.444.597-4.62 1.792-1.157 1.195-1.736 2.744-1.736 4.648 0 1.885.579 3.425 1.736 4.62 1.176 1.195 2.716 1.792 4.62 1.792 1.12 0 2.128-.243 3.024-.728.915-.504 1.605-1.185 2.072-2.044l3.332 1.932c-.84 1.419-2.007 2.548-3.5 3.388-1.493.821-3.136 1.232-4.928 1.232Z" fill="#fff"/><path fill-rule="evenodd" clip-rule="evenodd" d="M19.891 12.507H7.46L0 0h8.891a6.23 6.23 0 0 1 5.357 3.045l5.643 9.462Z" fill="#D2D6FF"/><path fill-rule="evenodd" clip-rule="evenodd" d="m35.672 2.995-5.794 9.512H7.41l9.51 15.745a6.246 6.246 0 0 0 5.34 3.015h5.438a6.23 6.23 0 0 0 5.362-3.057l9.322-15.703L50 0h-9.002a6.23 6.23 0 0 0-5.327 2.995Z" fill="#fff"/></svg>