<svg width="30" height="30" fill="none" xmlns="http://www.w3.org/2000/svg"><rect width="30" height="30" rx="2" fill="#7481FF"/><path d="M14.857 10.696a4.137 4.137 0 0 0-4.128 4.129 4.116 4.116 0 0 0 4.129 4.129 4.137 4.137 0 0 0 4.129-4.13c0-2.258-1.871-4.128-4.13-4.128Zm0 6.774a2.657 2.657 0 0 1-2.645-2.645 2.657 2.657 0 0 1 2.646-2.646 2.657 2.657 0 0 1 2.645 2.646 2.657 2.657 0 0 1-2.646 2.645Zm4.293-5.936a.935.935 0 1 0 0-1.87.935.935 0 0 0 0 1.87Z" fill="#fff"/><path d="M21.567 8.18c-.839-.871-2.032-1.323-3.387-1.323h-6.645c-2.807 0-4.678 1.871-4.678 4.678v6.613c0 1.387.452 2.58 1.355 3.451.871.839 2.033 1.258 3.355 1.258h6.58c1.388 0 2.55-.451 3.388-1.258.87-.839 1.322-2.032 1.322-3.42v-6.644c0-1.355-.451-2.517-1.29-3.355Zm-.129 10c0 1-.355 1.806-.935 2.355-.581.548-1.387.838-2.355.838h-6.58c-.969 0-1.775-.29-2.356-.838-.58-.581-.87-1.387-.87-2.387v-6.613c0-.968.29-1.775.87-2.355.549-.549 1.387-.839 2.355-.839h6.645c.968 0 1.774.29 2.355.871.549.58.871 1.387.871 2.323v6.645Z" fill="#fff"/></svg>