<svg width="18" height="18" fill="none" xmlns="http://www.w3.org/2000/svg"><path d="M13.5 1.879c-.673 0-1.346.255-1.856.765l-8.3 8.3a1.312 1.312 0 0 0-.334.568l-1.113 3.896a.562.562 0 0 0 .695.695L6.49 14.99c.214-.062.41-.176.567-.334l8.3-8.3a2.633 2.633 0 0 0 0-3.712 2.616 2.616 0 0 0-1.856-.765Zm0 1.118c.383 0 .765.148 1.06.442a1.491 1.491 0 0 1 0 2.122l-.727.727-2.12-2.121.727-.728a1.495 1.495 0 0 1 1.06-.442Zm-2.583 1.965 2.12 2.121-6.777 6.778a.19.19 0 0 1-.081.048l-2.923.835.835-2.923v-.001a.183.183 0 0 1 .048-.08l6.778-6.778Z" fill="#53B051"/></svg>