<svg width="18" height="18" fill="none" xmlns="http://www.w3.org/2000/svg"><path d="M8.063 1.125a.563.563 0 1 0 0 1.125h.374v.778C4.98 3.316 2.25 6.218 2.25 9.75A6.759 6.759 0 0 0 9 16.5a6.758 6.758 0 0 0 6.75-6.75 6.715 6.715 0 0 0-1.6-4.354l.684-.685a.562.562 0 1 0-.796-.795l-.684.684a6.714 6.714 0 0 0-3.791-1.572V2.25h.374a.563.563 0 1 0 0-1.125H8.063Zm.87 3.003a.562.562 0 0 0 .137 0A5.604 5.604 0 0 1 13.007 5.8a5.605 5.605 0 0 1 1.618 3.95A5.616 5.616 0 0 1 9 15.375 5.616 5.616 0 0 1 3.375 9.75a5.614 5.614 0 0 1 5.558-5.622Zm2.494 2.617a.562.562 0 0 0-.387.17l-1.75 1.75a1.125 1.125 0 1 0 .796.795l1.75-1.75a.562.562 0 0 0-.41-.965Z" fill="#231F20"/></svg>