<svg width="18" height="18" fill="none" xmlns="http://www.w3.org/2000/svg"><path d="M9 1.5c-1.273 0-2.298 1.002-2.4 2.25H2.439a.563.563 0 1 0 0 1.125h.63l1.268 9.826A2.068 2.068 0 0 0 6.382 16.5h2.48a4.883 4.883 0 0 1-.809-1.125H6.381a.94.94 0 0 1-.93-.817L4.202 4.875h9.595l-.447 3.473c.381.077.744.203 1.087.364l.495-3.837h.63a.563.563 0 1 0 0-1.125H11.4C11.297 2.502 10.272 1.5 9 1.5Zm0 1.125c.665 0 1.182.489 1.275 1.125h-2.55c.093-.636.61-1.125 1.275-1.125ZM12.375 9a4.125 4.125 0 1 0 0 8.25 4.125 4.125 0 0 0 0-8.25Zm1.875 1.875a.38.38 0 0 1 .125.024c.015.005.028.013.042.02a.36.36 0 0 1 .098.066.35.35 0 0 1 .07.105c.005.01.011.02.015.032a.37.37 0 0 1-.017.291.364.364 0 0 1-.068.102l-1.61 1.61 1.61 1.61c.03.03.05.065.067.1.006.013.014.025.019.039a.373.373 0 0 1 .024.126.38.38 0 0 1-.024.125c-.005.015-.013.028-.02.042a.364.364 0 0 1-.066.098.369.369 0 0 1-.104.07l-.033.015a.373.373 0 0 1-.256 0c-.012-.004-.023-.011-.035-.017a.368.368 0 0 1-.102-.068l-1.61-1.61-1.61 1.61a.367.367 0 0 1-.1.067c-.013.006-.025.014-.039.019a.374.374 0 0 1-.126.024.377.377 0 0 1-.125-.024c-.015-.005-.028-.013-.042-.02a.37.37 0 0 1-.098-.066.369.369 0 0 1-.07-.105c-.005-.01-.011-.02-.015-.032a.374.374 0 0 1 0-.256c.004-.012.011-.024.017-.035a.368.368 0 0 1 .068-.102l1.61-1.61-1.61-1.61a.37.37 0 0 1-.067-.1c-.006-.013-.014-.025-.019-.039a.373.373 0 0 1-.024-.126.38.38 0 0 1 .024-.125c.005-.015.013-.028.02-.042a.367.367 0 0 1 .066-.098.377.377 0 0 1 .12-.08l.02-.006a.371.371 0 0 1 .11-.021l.025-.002a.377.377 0 0 1 .125.025c.007.002.013.007.02.01a.35.35 0 0 1 .11.074l1.61 1.61 1.61-1.61a.37.37 0 0 1 .1-.067c.013-.006.026-.014.04-.019a.373.373 0 0 1 .125-.024Z" fill="#FF5E54"/></svg>