<svg width="11" height="11" fill="none" xmlns="http://www.w3.org/2000/svg"><path fill-rule="evenodd" clip-rule="evenodd" d="M10.79.91a.846.846 0 0 1-.079 1.194L6.475 5.81l4.236 3.707a.846.846 0 0 1-1.114 1.274L4.633 6.447a.846.846 0 0 1 0-1.274L9.597.83a.846.846 0 0 1 1.194.08Z" fill="#FF5E54"/><path fill-rule="evenodd" clip-rule="evenodd" d="M.21.91a.846.846 0 0 0 .079 1.194L4.525 5.81.29 9.517a.846.846 0 0 0 1.114 1.274l4.964-4.344a.846.846 0 0 0 0-1.274L1.403.83A.846.846 0 0 0 .21.91Z" fill="#FF5E54"/></svg>