<svg width="20" height="20" fill="none" xmlns="http://www.w3.org/2000/svg"><path d="M15 2.083A2.926 2.926 0 0 0 12.084 5c0 .244.082.462.14.69L7.227 8.187C6.69 7.531 5.909 7.083 5 7.083A2.926 2.926 0 0 0 2.083 10 2.926 2.926 0 0 0 5 12.917c.91 0 1.691-.448 2.228-1.106l4.995 2.5c-.057.227-.14.445-.14.689A2.926 2.926 0 0 0 15 17.917 2.926 2.926 0 0 0 17.917 15 2.926 2.926 0 0 0 15 12.083c-.909 0-1.691.448-2.227 1.105L7.777 10.69c.057-.227.14-.445.14-.69 0-.243-.083-.461-.14-.688l4.996-2.5c.536.658 1.318 1.106 2.227 1.106A2.926 2.926 0 0 0 17.917 5 2.926 2.926 0 0 0 15 2.083Zm0 1.25c.928 0 1.667.739 1.667 1.667S15.928 6.667 15 6.667A1.657 1.657 0 0 1 13.334 5c0-.928.738-1.667 1.666-1.667Zm-10 5c.928 0 1.667.739 1.667 1.667S5.928 11.667 5 11.667A1.657 1.657 0 0 1 3.333 10c0-.928.74-1.667 1.667-1.667Zm10 5c.928 0 1.667.739 1.667 1.667s-.739 1.667-1.667 1.667A1.657 1.657 0 0 1 13.334 15c0-.928.738-1.667 1.666-1.667Z" fill="#fff"/></svg>