<svg width="19" height="19" fill="none" xmlns="http://www.w3.org/2000/svg"><g clip-path="url(#a)"><path d="M9.5 18.963A9.463 9.463 0 1 0 9.5.037a9.463 9.463 0 0 0 0 18.926Z" fill="#fff" stroke="#fff" stroke-width="5"/><path d="M15.595 6.079s-1.423.643-1.588 1.956c-.164 1.313-1.393 2.627-2.597 3.009-1.183.375-1.985 1.454-3.334.79-1.703-.84-4.494-2.198-5.69-1.877.269-.315.802-.804.945-1.193.212-.59.32-.965.388-1.424.14-.948 1.323-2.816 2.914-3.772.564-.338 1.444-1.415 2.406-1.203 1.024.225 1.808-.453 2.632.005.824.458 1.837 1.727 2.214 2.397.574 1.018 1.71 1.312 1.71 1.312Z" fill="#95001A"/><path d="M13.841 6.734s-.496 3.988-3.234 3.748c-2.737-.24-1.831-1.34-6.943-1.512 0 0 1.366-1.281 4.095-1.573 2.729-.29 6.082-.663 6.082-.663Z" fill="#780016"/><path d="M11.873 3.549c.791.915 1.424 2.576 3.615 2.54 0 0-1.912.548-3.28-.465-.776-.575-2.233-.838-2.233-.838L3.664 8.97l-1.39.995c1.236-1.043 2.355-2.042 3.03-3.283.664-1.226 1.496-1.357 2.7-2.102 1.006-.621 1.147-1.045 1.311-1.015 1.86.343 1.97-.694 2.557-.016Z" fill="#69001F"/><path d="M14.882 6.172c-.667.267-.836.543-1.125.79-.888.76-1.49 1.194-2.181 1.353-1.279.293-2.963.05-5.55.175-1.282.061-2.03.336-2.536.61 0 0 1.69-1.927 3.219-2.723 1.416-.737 1.89-1.472 2.84-1.713.664-.17.819-.059 1.579-.192.334-.058.782.442.985.601.671.53 1.632 1.095 2.769 1.099Z" fill="#36000A"/><path d="M6.89 10.858c.979.843 2.53 1.64 4.176.917 1.647-.724 2.573-1.88 2.943-3.166.021.481-.038 1.475-.89 2.493-.286.34-.707.83-1.52 1.195a4.912 4.912 0 0 1-2.518.38c-.326-.04-.651-.12-1.632-.593-1.96-.945-2.407-1.472-3.784-1.855a8.679 8.679 0 0 0-1.392-.263l.585-.419s3.053.467 4.032 1.31Z" fill="#69001F"/><path d="M15.489 6.089s-1.298.747-2.469 2.119c0 0 .69-1.811 1.574-2.047-.001 0 .71-.027.895-.072Z" fill="#810716"/><path d="M11.695 2.01c.568.3.863.412 1.252.97.285.41.662 1.206.975 1.723.543.896.976.958 1.56 1.384 0 0-1.455-.124-2.466-2.147-.264-.528-.76-1.225-1.442-1.384-.318-.074-.677-.031-1.073.201-.775.455-1.187-.066-1.747.097-.576.168-.628.63-1.569.88C4.118 4.863 4.81 8.426 2.273 9.966c0 0 .77-.655 1.126-1.794.578-1.85 1.106-3.314 2.687-4.405.631-.435 1.125-.784 2.238-1.51.406-.265 1.255-.012 1.791-.11 1.165-.213 1.028-.427 1.58-.136Z" fill="#B50018"/><path d="M10.482 7.417S7.14 6.542 4.46 8.696c0 0 4.981 1.152 4.127 3.583-1.741 4.959 2.647 5.13 6.384 1.304 1.484-1.52 1.52-4.764-.931-6.982 0 0-1.996-.641-3.558.816Z" fill="#F21B4E"/><path d="M15.864 10.547c-.37.743-2.366 3.573-4.523 3.78-2.718.26-.798-3.412-2.74-4.361C6.66 9.016 5.513 8.87 5.513 8.87s.42-.677 1.448-1.331c1.883-.36 3.52-.123 3.52-.123a3.706 3.706 0 0 1 2.722-1.001c.254.03.463.11.732.155 1.354 1.225 1.957 2.655 1.93 3.976Z" fill="#FE677E"/><path d="M15.756 12.192c-.021.057-.033.576-.735 1.342-4.62 4.42-8.13 3.388-6.565-1.21.831-2.439-4.087-3.598-4.087-3.598 2.498-2.24 6.112-1.309 6.112-1.309l.047-.043.002.01c.15.086.296.18.436.282l-.044-.155-.384-.145-.008.008c.01-.01.375-.47 1.06-.766.697-.3 1.906-.406 2.5.03-1.118-.393-2.513.202-2.765 1.305l-.014-.006c1.03.893 1.656 2.176 1.5 3.37-.49-1.29-.943-2.18-1.859-3.245-.52-.171-2.292-.706-3.44-.46-1.357.289-1.613 1.313-.767 1.882s1.933.763 2.137 1.711c.204.949-.369 1.957-.448 2.86-.09 1.024.229 1.91 1.28 1.929 1.744.031 4.678-1.643 6.042-3.792Z" fill="#B6044A"/><path d="M10.966 7.666a4.928 4.928 0 0 0-.436-.282.076.076 0 0 1-.002-.01l.009-.007.384.145.045.154Z" fill="#D33886"/><path d="M14.535 7.404c.04.058.462.682.252.809-.187.114-.905-.16-1.13-.63-.153-.319-.089-.745.103-.805.232-.072.623.406.775.626Zm-3.54 1.171c.75.724 1.051 1.596.94 1.641-.025.01-.208-.179-.572-.557-.516-.537-.654-.702-.79-.919-.025-.041-.354-.574-.245-.63.092-.047.463.268.668.465ZM9.25 14.947c-.07.07.306.451.868.517.255.03.562-.005.584-.063.01-.029-.043-.069-.496-.21-.61-.19-.915-.286-.956-.244Zm-.187-.928c-.025.09.167.178.24.146.045-.02.049-.085.035-.126a.16.16 0 0 0-.175-.1c-.047.01-.09.045-.1.08Zm.177-6.023c-.024.18-.567.382-1.02.375-.434-.007-.886-.206-.841-.386.042-.17.516-.296.853-.317.487-.03 1.031.14 1.007.328Z" fill="#FFD6EE"/><path d="M12.605 3.1c.282.69-.095-.07-.48-.414-.346-.31-.828-.329-.742-.427.015-.031.28-.032.484.042.31.112.598.456.738.799Z" fill="#F79B7F"/><path d="M7.003 5.135c.069.039.981-.553 1.407-.857.454-.27.462-.482.715-.592.114-.05.21-.094.582-.08-.288-.095-.415-.107-.471-.343-.059-.244-.43-.988-.654-.96-.225.028-.152.8-.583 1.536-.449.766-1.078 1.25-.996 1.296Z" fill="#B50018"/><path d="M8.42 3.68c-.055.252-.082.379-.045.39.102.027.534-.282.52-.582-.01-.188-.193-.351-.296-.325-.023.006-.073.03-.18.516ZM4.7 5.923c-.363 1.315.159.198.534-.419.38-.625 1.346-1.405.647-1.124-.48.192-1.083 1.187-1.181 1.543Z" fill="#F79B7F"/><path d="M9.752 3.593c.909.15 1.473-.286 1.892-.177.281.073.414.493.713.753-.604-.615-.556-1.514-.918-1.675-.437-.075.207.383-.362.722-.27.278-.953.369-1.325.377Z" fill="#B50018"/><path d="M10.955 3.093c-.165.148-.572.347-.552.373.056.07.789-.172.929-.388.186-.254.05-.541-.04-.558-.2-.038-.02.289-.337.573Zm-2.427-.737c-.043.107.445.396.803.307.14-.035.333-.183.331-.26-.003-.107-.46-.121-.67-.12-.148 0-.43-.011-.464.073Z" fill="#F79B7F"/></g><defs><clipPath id="a"><rect width="19" height="19" rx="9.5" fill="#fff"/></clipPath></defs></svg>