<svg width="20" height="20" fill="none" xmlns="http://www.w3.org/2000/svg"><path d="M13.333 2.5c-2.263 0-4.1 1.829-4.149 4.08-2-.24-3.303-.988-4.103-1.725-.886-.817-1.167-1.544-1.167-1.544a.625.625 0 0 0-1.08-.144s-.75 1-.75 2.458c0 .834.262 1.45.576 1.973-.011-.005-.09-.032-.09-.032a.625.625 0 0 0-.901.616s.24 1.758 1.894 3.044l-.173.043a.624.624 0 0 0-.391.916s.28.474.867.973c.348.296.86.602 1.463.884-.74.27-1.845.541-3.454.541a.625.625 0 0 0-.47 1.037s.477.526 1.421.984c.944.458 2.399.896 4.466.896 3.633 0 6.243-1.743 7.872-3.952 1.63-2.209 2.336-4.856 2.336-6.881a4.17 4.17 0 0 0-.02-.381c.88-.848 1.21-1.485 1.226-1.516a.416.416 0 0 0-.547-.565l-.067.03a5.523 5.523 0 0 1-.175.08c.17-.27.304-.559.397-.858a.417.417 0 0 0-.614-.48 6.06 6.06 0 0 1-1.505.671A4.148 4.148 0 0 0 13.333 2.5Zm0 1.25a2.908 2.908 0 0 1 2.917 2.917c0 1.724-.648 4.181-2.092 6.139-1.443 1.958-3.625 3.444-6.866 3.444-1.57 0-2.613-.284-3.395-.59.82-.128 1.525-.298 2.031-.494.88-.34 1.354-.733 1.354-.733a.626.626 0 0 0-.256-1.08c-1.134-.285-1.862-.743-2.318-1.126l.652-.162a.625.625 0 0 0 .073-1.19c-1.352-.52-1.92-1.256-2.21-1.872.353.073.682.164 1.152.164a.625.625 0 0 0 .279-1.184s-1.32-.608-1.32-2.358c0-.314.086-.513.15-.751.218.293.397.575.75.9 1.072.99 2.845 1.998 5.524 2.142a.625.625 0 0 0 .659-.624v-.625a2.907 2.907 0 0 1 2.916-2.917Z" fill="#fff"/></svg>